<svg xmlns="http://www.w3.org/2000/svg" width="920" height="520" viewBox="0 0 920 520">
<rect width="100%" height="100%" fill="#ffffff"/>
<text x="460" y="24" text-anchor="middle" font-family="Arial" font-size="18" font-weight="700">Čas rámca vs. počet uzlov</text>
<line x1="70" y1="36" x2="70" y2="456" stroke="#334155"/>
<line x1="70" y1="456" x2="890" y2="456" stroke="#334155"/>
<g><line x1="65" y1="456" x2="890" y2="456" stroke="#e2e8f0"/><text x="60" y="460" text-anchor="end" font-family="Arial" font-size="12">0</text></g>
<g><line x1="65" y1="351" x2="890" y2="351" stroke="#e2e8f0"/><text x="60" y="355" text-anchor="end" font-family="Arial" font-size="12">0.1</text></g>
<g><line x1="65" y1="246" x2="890" y2="246" stroke="#e2e8f0"/><text x="60" y="250" text-anchor="end" font-family="Arial" font-size="12">0.21</text></g>
<g><line x1="65" y1="141" x2="890" y2="141" stroke="#e2e8f0"/><text x="60" y="145" text-anchor="end" font-family="Arial" font-size="12">0.31</text></g>
<g><line x1="65" y1="36" x2="890" y2="36" stroke="#e2e8f0"/><text x="60" y="40" text-anchor="end" font-family="Arial" font-size="12">0.41</text></g>
<g><line x1="70" y1="456" x2="70" y2="461" stroke="#334155"/><text x="70" y="492" text-anchor="middle" font-family="Arial" font-size="12">50</text></g>
<g><line x1="275" y1="456" x2="275" y2="461" stroke="#334155"/><text x="275" y="492" text-anchor="middle" font-family="Arial" font-size="12">100</text></g>
<g><line x1="480" y1="456" x2="480" y2="461" stroke="#334155"/><text x="480" y="492" text-anchor="middle" font-family="Arial" font-size="12">250</text></g>
<g><line x1="685" y1="456" x2="685" y2="461" stroke="#334155"/><text x="685" y="492" text-anchor="middle" font-family="Arial" font-size="12">500</text></g>
<g><line x1="890" y1="456" x2="890" y2="461" stroke="#334155"/><text x="890" y="492" text-anchor="middle" font-family="Arial" font-size="12">1000</text></g>
<polyline points="70,442.1688176910989 275,428.11489669005334 480,384.8086385793574 685,293.06116801279575 890,90.78260869565219" fill="none" stroke="#dc2626" stroke-width="3"/>
<polyline points="70,260.59452056035684 275,429.35612399564434 480,405.6821821795189 685,362.88453199303063 890,257.4232305933385" fill="none" stroke="#0284c7" stroke-width="3"/>
<circle cx="70" cy="442.1688176910989" r="4" fill="#dc2626"/>
<circle cx="275" cy="428.11489669005334" r="4" fill="#dc2626"/>
<circle cx="480" cy="384.8086385793574" r="4" fill="#dc2626"/>
<circle cx="685" cy="293.06116801279575" r="4" fill="#dc2626"/>
<circle cx="890" cy="90.78260869565219" r="4" fill="#dc2626"/>
<circle cx="70" cy="260.59452056035684" r="4" fill="#0284c7"/>
<circle cx="275" cy="429.35612399564434" r="4" fill="#0284c7"/>
<circle cx="480" cy="405.6821821795189" r="4" fill="#0284c7"/>
<circle cx="685" cy="362.88453199303063" r="4" fill="#0284c7"/>
<circle cx="890" cy="257.4232305933385" r="4" fill="#0284c7"/>
<text x="460" y="512" text-anchor="middle" font-family="Arial" font-size="13">Počet uzlov N</text>
<text x="16" y="260" transform="rotate(-90 16 260)" text-anchor="middle" font-family="Arial" font-size="13">Medián času rámca (ms)</text>
<rect x="710" y="48" width="160" height="58" fill="#ffffff" stroke="#cbd5e1"/>
<line x1="726" y1="68" x2="762" y2="68" stroke="#dc2626" stroke-width="3"/><text x="772" y="72" font-family="Arial" font-size="13">baseline</text>
<line x1="726" y1="90" x2="762" y2="90" stroke="#0284c7" stroke-width="3"/><text x="772" y="94" font-family="Arial" font-size="13">optimized</text>
</svg>